<svg width="18" height="19" viewBox="0 0 18 19" fill="none" xmlns="http://www.w3.org/2000/svg">
<path d="M0.666672 19V15.6667H17.3333V19H0.666672ZM4.00001 12.3333H5.16667L11.6667 5.85416L10.4792 4.66666L4.00001 11.1667V12.3333ZM2.33334 14V10.4583L11.6667 1.14583C11.8195 0.993053 11.9965 0.874997 12.1979 0.791664C12.3993 0.708331 12.6111 0.666664 12.8333 0.666664C13.0556 0.666664 13.2708 0.708331 13.4792 0.791664C13.6875 0.874997 13.875 0.999997 14.0417 1.16666L15.1875 2.33333C15.3542 2.48611 15.4757 2.66666 15.5521 2.875C15.6285 3.08333 15.6667 3.29861 15.6667 3.52083C15.6667 3.72916 15.6285 3.93402 15.5521 4.13541C15.4757 4.3368 15.3542 4.52083 15.1875 4.6875L5.87501 14H2.33334Z" fill="#1F15A1"/>
</svg>
