<svg width="16" height="15" viewBox="0 0 16 18" fill="none" xmlns="http://www.w3.org/2000/svg">
<path d="M2.16667 17.3333C1.70833 17.3333 1.31597 17.1701 0.989583 16.8438C0.663194 16.5174 0.5 16.125 0.5 15.6667V4.00001C0.5 3.54167 0.663194 3.14931 0.989583 2.82292C1.31597 2.49653 1.70833 2.33334 2.16667 2.33334H3V0.666672H4.66667V2.33334H11.3333V0.666672H13V2.33334H13.8333C14.2917 2.33334 14.684 2.49653 15.0104 2.82292C15.3368 3.14931 15.5 3.54167 15.5 4.00001V15.6667C15.5 16.125 15.3368 16.5174 15.0104 16.8438C14.684 17.1701 14.2917 17.3333 13.8333 17.3333H2.16667ZM2.16667 15.6667H13.8333V7.33334H2.16667V15.6667ZM2.16667 5.66667H13.8333V4.00001H2.16667V5.66667ZM8 10.6667C7.76389 10.6667 7.56597 10.5868 7.40625 10.4271C7.24653 10.2674 7.16667 10.0694 7.16667 9.83334C7.16667 9.59723 7.24653 9.39931 7.40625 9.23959C7.56597 9.07987 7.76389 9 8 9C8.23611 9 8.43403 9.07987 8.59375 9.23959C8.75347 9.39931 8.83333 9.59723 8.83333 9.83334C8.83333 10.0694 8.75347 10.2674 8.59375 10.4271C8.43403 10.5868 8.23611 10.6667 8 10.6667ZM4.66667 10.6667C4.43056 10.6667 4.23264 10.5868 4.07292 10.4271C3.91319 10.2674 3.83333 10.0694 3.83333 9.83334C3.83333 9.59723 3.91319 9.39931 4.07292 9.23959C4.23264 9.07987 4.43056 9 4.66667 9C4.90278 9 5.10069 9.07987 5.26042 9.23959C5.42014 9.39931 5.5 9.59723 5.5 9.83334C5.5 10.0694 5.42014 10.2674 5.26042 10.4271C5.10069 10.5868 4.90278 10.6667 4.66667 10.6667ZM11.3333 10.6667C11.0972 10.6667 10.8993 10.5868 10.7396 10.4271C10.5799 10.2674 10.5 10.0694 10.5 9.83334C10.5 9.59723 10.5799 9.39931 10.7396 9.23959C10.8993 9.07987 11.0972 9 11.3333 9C11.5694 9 11.7674 9.07987 11.9271 9.23959C12.0868 9.39931 12.1667 9.59723 12.1667 9.83334C12.1667 10.0694 12.0868 10.2674 11.9271 10.4271C11.7674 10.5868 11.5694 10.6667 11.3333 10.6667ZM8 14C7.76389 14 7.56597 13.9201 7.40625 13.7604C7.24653 13.6007 7.16667 13.4028 7.16667 13.1667C7.16667 12.9306 7.24653 12.7326 7.40625 12.5729C7.56597 12.4132 7.76389 12.3333 8 12.3333C8.23611 12.3333 8.43403 12.4132 8.59375 12.5729C8.75347 12.7326 8.83333 12.9306 8.83333 13.1667C8.83333 13.4028 8.75347 13.6007 8.59375 13.7604C8.43403 13.9201 8.23611 14 8 14ZM4.66667 14C4.43056 14 4.23264 13.9201 4.07292 13.7604C3.91319 13.6007 3.83333 13.4028 3.83333 13.1667C3.83333 12.9306 3.91319 12.7326 4.07292 12.5729C4.23264 12.4132 4.43056 12.3333 4.66667 12.3333C4.90278 12.3333 5.10069 12.4132 5.26042 12.5729C5.42014 12.7326 5.5 12.9306 5.5 13.1667C5.5 13.4028 5.42014 13.6007 5.26042 13.7604C5.10069 13.9201 4.90278 14 4.66667 14ZM11.3333 14C11.0972 14 10.8993 13.9201 10.7396 13.7604C10.5799 13.6007 10.5 13.4028 10.5 13.1667C10.5 12.9306 10.5799 12.7326 10.7396 12.5729C10.8993 12.4132 11.0972 12.3333 11.3333 12.3333C11.5694 12.3333 11.7674 12.4132 11.9271 12.5729C12.0868 12.7326 12.1667 12.9306 12.1667 13.1667C12.1667 13.4028 12.0868 13.6007 11.9271 13.7604C11.7674 13.9201 11.5694 14 11.3333 14Z" fill="#1F15A1"/>
</svg>
